<svg width="27" height="41" viewBox="0 0 27 41" fill="none" xmlns="http://www.w3.org/2000/svg">
<path d="M14.6667 11.6666H16C16.684 11.6666 17.248 12.1813 17.324 12.8439L17.3333 12.9999V15.6666H18.6667V12.9999C18.6667 12.3693 19.1053 11.8399 19.6947 11.7013L19.844 11.6759L20 11.6666H25.3333C26.0173 11.6666 26.5813 12.1813 26.6573 12.8439L26.6667 12.9999V19.6666C26.6667 19.8773 26.6173 20.0839 26.5227 20.2706L26.4427 20.4066L24 24.0693V39.6666C24 40.2973 23.5613 40.8266 22.972 40.9653L22.8227 40.9906L22.6667 40.9999H4C3.316 40.9999 2.752 40.4853 2.676 39.8226L2.66667 39.6666V24.0719L0.224 20.4066C0.136 20.2746 0.0733337 20.1293 0.0373332 19.9773L0.00933329 19.8239L0 19.6666V12.9999C0 12.3159 0.514666 11.7519 1.17733 11.6759L1.33333 11.6666H6.66667C7.35067 11.6666 7.91467 12.1813 7.99067 12.8439L8 12.9999V15.6666H9.33333V12.9999C9.33333 12.3693 9.772 11.8399 10.3613 11.7013L10.5107 11.6759L10.6667 11.6666H12H14.6667ZM5.33333 14.3333H2.66667V19.2626L5.10933 22.9266C5.19733 23.0586 5.26 23.2039 5.296 23.3559L5.324 23.5093L5.33333 23.6666V38.3333H8V32.9999C8 30.1439 10.2453 27.8119 13.0667 27.6733L13.3333 27.6666C16.1893 27.6666 18.5213 29.9119 18.66 32.7333L18.6667 32.9999V38.3333H21.3333V27.6666H18.6667V24.9999H21.3333V23.6666C21.3333 23.5093 21.3613 23.3533 21.416 23.2066L21.4773 23.0626L21.5573 22.9266L24 19.2613V14.3333H21.3333V16.9999C21.3333 17.6306 20.8947 18.1599 20.3053 18.2986L20.156 18.3239L20 18.3333H16C15.316 18.3333 14.752 17.8186 14.676 17.1559L14.6667 16.9999V14.3333H12V16.9999C12 17.6306 11.5613 18.1599 10.972 18.2986L10.8227 18.3239L10.6667 18.3333H6.66667C5.98267 18.3333 5.41867 17.8186 5.34267 17.1559L5.33333 16.9999V14.3333ZM13.3333 30.3333C11.928 30.3333 10.776 31.4213 10.6733 32.8013L10.6667 32.9999V38.3333H16V32.9999C16 31.6639 15.0187 30.5586 13.7373 30.3639L13.532 30.3399L13.3333 30.3333ZM18.6667 23.6666H14.6667V20.9999H18.6667V23.6666Z" fill="#717171"/>
<path d="M13.6665 12.6667V2.41599" stroke="#717171" stroke-width="2.66667" stroke-linecap="round" stroke-linejoin="round"/>
<path d="M20.5135 7.67196H13.8335V2.33063H20.5135V7.67196Z" stroke="#717171" stroke-width="2.66667" stroke-linecap="round" stroke-linejoin="round"/>
</svg>
