<svg width="32" height="32" viewBox="0 0 32 32" fill="none" xmlns="http://www.w3.org/2000/svg">
<g clip-path="url(#clip0_74_4349)">
<path d="M16.0002 0.700012C7.5632 0.700012 0.700195 7.56301 0.700195 16C0.700195 24.437 7.5632 31.3 16.0002 31.3C24.4372 31.3 31.3002 24.437 31.3002 16C31.3002 7.56301 24.4372 0.700012 16.0002 0.700012ZM16.0002 28.7C11.9792 28.7 8.3952 26.816 6.0672 23.89C7.6888 21.7682 9.95089 20.2253 12.5182 19.49C11.5938 18.9028 10.8326 18.0918 10.305 17.1321C9.77744 16.1724 9.50062 15.0951 9.5002 14C9.5002 10.416 12.4162 7.50001 16.0002 7.50001C19.5842 7.50001 22.5002 10.416 22.5002 14C22.4993 15.0953 22.2221 16.1727 21.6945 17.1324C21.1668 18.0922 20.4055 18.9034 19.4812 19.491C22.049 20.2258 24.3116 21.7688 25.9332 23.891C23.6052 26.816 20.0212 28.7 16.0002 28.7Z" fill="#717171"/>
</g>
<defs>
<clipPath id="clip0_74_4349">
<rect width="32" height="32" fill="white"/>
</clipPath>
</defs>
</svg>
